<svg xmlns="http://www.w3.org/2000/svg" xmlns:xlink="http://www.w3.org/1999/xlink"
  zoomAndPan="magnify" viewBox="0 0 90 90" preserveAspectRatio="xMidYMid meet" version="1.0">
  <path fill="#2F5597"
    d="M 68.855469 50.660156 C 68.855469 54.558594 65.664062 57.746094 61.769531 57.746094 L 59.222656 69.128906 L 45.902344 57.746094 L 28.25 57.746094 C 24.347656 57.746094 21.160156 54.558594 21.160156 50.660156 L 21.160156 30.777344 C 21.160156 26.878906 24.347656 23.691406 28.25 23.691406 L 61.769531 23.691406 C 65.664062 23.691406 68.855469 26.878906 68.855469 30.777344 Z M 45.007812 0.00390625 C 20.152344 0.00390625 0.00390625 20.152344 0.00390625 45.007812 C 0.00390625 69.863281 20.152344 90.011719 45.007812 90.011719 C 69.863281 90.011719 90.011719 69.863281 90.011719 45.007812 C 90.011719 20.152344 69.863281 0.00390625 45.007812 0.00390625 "
    fill-opacity="1" fill-rule="nonzero" />
</svg>